<svg xmlns="http://www.w3.org/2000/svg" viewBox="0 0 1180 680">
    <defs>
      <linearGradient id="wall" x1="0" y1="0" x2="1" y2="1"><stop stop-color="#233025"/><stop offset="1" stop-color="#0b110c"/></linearGradient>
      <linearGradient id="floor" x1="0" y1="0" x2="0" y2="1"><stop stop-color="#516d55"/><stop offset=".32" stop-color="#202329"/><stop offset="1" stop-color="#080b0e"/></linearGradient>
      <radialGradient id="light"><stop stop-color="#ddba4a" stop-opacity=".43"/><stop offset=".42" stop-color="#ddba4a" stop-opacity=".10"/><stop offset="1" stop-color="#ddba4a" stop-opacity="0"/></radialGradient>
      <filter id="shadow"><feDropShadow dx="0" dy="15" stdDeviation="12" flood-opacity=".42"/></filter>
      <filter id="glow"><feDropShadow dx="0" dy="0" stdDeviation="8" flood-color="#ddba4a" flood-opacity=".35"/></filter>
      <filter id="soft"><feGaussianBlur stdDeviation="2.5"/></filter>
      <pattern id="floorGrid" width="110" height="60" patternUnits="userSpaceOnUse" patternTransform="skewX(-13)"><path d="M0 0h110v60H0z" fill="none" stroke="#596068" stroke-opacity=".18"/></pattern>
    </defs>
    <rect width="1180" height="680" fill="#0b110c"/>
    <rect x="18" y="18" width="1144" height="396" rx="10" fill="url(#wall)"/>
    <rect x="18" y="396" width="1144" height="266" fill="url(#floor)"/>
    <rect x="18" y="396" width="1144" height="266" fill="url(#floorGrid)"/>
    <ellipse cx="879" cy="99" rx="260" ry="210" fill="url(#light)"/>
    <rect x="61" y="77" width="283" height="177" fill="#081721" stroke="#45535d" stroke-width="10"/>
    <line x1="202.5" y1="77" x2="202.5" y2="254" stroke="#45535d" stroke-width="5"/>
    <line x1="61" y1="165.5" x2="344" y2="165.5" stroke="#45535d" stroke-width="5"/>
    
        <ellipse cx="555" cy="430" rx="230" ry="80" fill="#624735" filter="url(#shadow)"/><rect x="538" y="430" width="34" height="140" fill="#35261f"/>
        <circle cx="520" cy="385" r="27" fill="#741f32"/><rect x="507" y="315" width="26" height="70" fill="#bfa275"/>
        <rect x="190" y="375" width="150" height="150" rx="20" fill="#3f454a"/><rect x="770" y="375" width="150" height="150" rx="20" fill="#3f454a"/>
        
    <g opacity=".72" filter="url(#soft)"><ellipse cx="330" cy="504" rx="70" ry="27" fill="#76060b"/><circle cx="260" cy="479" r="10" fill="#76060b"/><circle cx="405" cy="522" r="7" fill="#76060b"/></g>
    <g transform="rotate(20 652 510)" opacity=".9">
    <circle cx="652" cy="440" r="20" fill="none" stroke="#deded3" stroke-width="4"/>
    <rect x="624" y="462" width="56" height="95" rx="20" fill="none" stroke="#deded3" stroke-width="4"/>
    <line x1="634" y1="485" x2="567" y2="530" stroke="#deded3" stroke-width="4"/>
    <line x1="670" y1="485" x2="737" y2="530" stroke="#deded3" stroke-width="4"/>
    <line x1="637" y1="555" x2="602" y2="630" stroke="#deded3" stroke-width="4"/>
    <line x1="667" y1="555" x2="707" y2="630" stroke="#deded3" stroke-width="4"/></g>
    <ellipse cx="718" cy="532" rx="18" ry="42" transform="rotate(28 718 532)" fill="#242322" stroke="#77716c" stroke-width="2"/><rect x="397" y="442" width="56" height="36" rx="6" fill="#242a2e"/><circle cx="425" cy="460" r="12" fill="#0b151b" stroke="#7a8c96" stroke-width="3"/><rect x="530" y="427" width="76" height="50" rx="8" fill="#3d3029" stroke="#8f6d50" stroke-width="3"/><path d="M550 427q18-24 36 0" fill="none" stroke="#8f6d50" stroke-width="4"/><path d="M708 470h32l-6 35h-20z" fill="none" stroke="#dce5e8" stroke-width="3"/><line x1="724" y1="505" x2="724" y2="523" stroke="#dce5e8" stroke-width="3"/>
    <g filter="url(#glow)"><circle cx="718" cy="477" r="24" fill="#0b1014" stroke="#ddba4a" stroke-width="4"/><text x="718" y="484" text-anchor="middle" font-family="Arial" font-weight="700" font-size="19" fill="#ddba4a">1</text></g><g filter="url(#glow)"><circle cx="425" cy="405" r="24" fill="#0b1014" stroke="#ddba4a" stroke-width="4"/><text x="425" y="412" text-anchor="middle" font-family="Arial" font-weight="700" font-size="19" fill="#ddba4a">2</text></g><g filter="url(#glow)"><circle cx="568" cy="394" r="24" fill="#0b1014" stroke="#ddba4a" stroke-width="4"/><text x="568" y="401" text-anchor="middle" font-family="Arial" font-weight="700" font-size="19" fill="#ddba4a">3</text></g><g filter="url(#glow)"><circle cx="724" cy="433" r="24" fill="#0b1014" stroke="#ddba4a" stroke-width="4"/><text x="724" y="440" text-anchor="middle" font-family="Arial" font-weight="700" font-size="19" fill="#ddba4a">4</text></g>
    <g transform="rotate(-5 590 300)"><rect x="-40" y="300" width="1280" height="42" fill="#e1b52c"/><path d="M0 305l40 32M100 305l40 32M200 305l40 32M300 305l40 32M400 305l40 32M500 305l40 32M600 305l40 32M700 305l40 32M800 305l40 32M900 305l40 32M1000 305l40 32M1100 305l40 32" stroke="#242015" stroke-width="8"/></g>
    <rect x="32" y="32" width="215" height="34" rx="5" fill="#071018" fill-opacity=".88" stroke="#ddba4a" stroke-opacity=".35"/>
    <text x="48" y="55" font-family="Arial" font-weight="700" font-size="13" fill="#ddba4a">CASE 0244 • مطعم فاخر</text>
    <rect x="18" y="18" width="1144" height="644" rx="10" fill="none" stroke="#ddba4a" stroke-opacity=".18"/>
    </svg>