<svg xmlns="http://www.w3.org/2000/svg" viewBox="0 0 1180 680">
    <defs>
      <linearGradient id="wall" x1="0" y1="0" x2="1" y2="1"><stop stop-color="#2a211d"/><stop offset="1" stop-color="#0a0e12"/></linearGradient>
      <linearGradient id="floor" x1="0" y1="0" x2="0" y2="1"><stop stop-color="#a17b55"/><stop offset=".32" stop-color="#202329"/><stop offset="1" stop-color="#080b0e"/></linearGradient>
      <radialGradient id="light"><stop stop-color="#efb83c" stop-opacity=".43"/><stop offset=".42" stop-color="#efb83c" stop-opacity=".10"/><stop offset="1" stop-color="#efb83c" stop-opacity="0"/></radialGradient>
      <filter id="shadow"><feDropShadow dx="0" dy="15" stdDeviation="12" flood-opacity=".42"/></filter>
      <filter id="glow"><feDropShadow dx="0" dy="0" stdDeviation="8" flood-color="#efb83c" flood-opacity=".35"/></filter>
      <filter id="soft"><feGaussianBlur stdDeviation="2.5"/></filter>
      <pattern id="floorGrid" width="110" height="60" patternUnits="userSpaceOnUse" patternTransform="skewX(-13)"><path d="M0 0h110v60H0z" fill="none" stroke="#596068" stroke-opacity=".18"/></pattern>
    </defs>
    <rect width="1180" height="680" fill="#0a0e12"/>
    <rect x="18" y="18" width="1144" height="366" rx="10" fill="url(#wall)"/>
    <rect x="18" y="366" width="1144" height="296" fill="url(#floor)"/>
    <rect x="18" y="366" width="1144" height="296" fill="url(#floorGrid)"/>
    <ellipse cx="893" cy="159" rx="260" ry="210" fill="url(#light)"/>
    <rect x="150" y="79" width="284" height="192" fill="#081721" stroke="#45535d" stroke-width="10"/>
    <line x1="292.0" y1="79" x2="292.0" y2="271" stroke="#45535d" stroke-width="5"/>
    <line x1="150" y1="175.0" x2="434" y2="175.0" stroke="#45535d" stroke-width="5"/>
    
        <rect x="190" y="370" width="520" height="165" rx="24" fill="#a17b55" filter="url(#shadow)"/>
        <rect x="215" y="392" width="465" height="118" rx="20" fill="#d8c5a2"/>
        <rect x="270" y="398" width="160" height="64" rx="8" fill="#f4e8cf"/>
        <rect x="870" y="120" width="180" height="350" fill="#202a31" stroke="#53616b" stroke-width="10"/>
        <rect x="800" y="390" width="110" height="105" rx="12" fill="#4d4037"/>
        
    
    <g transform="rotate(2 715 465)" opacity=".9">
    <circle cx="715" cy="395" r="20" fill="none" stroke="#deded3" stroke-width="4"/>
    <rect x="687" y="417" width="56" height="95" rx="20" fill="none" stroke="#deded3" stroke-width="4"/>
    <line x1="697" y1="440" x2="630" y2="485" stroke="#deded3" stroke-width="4"/>
    <line x1="733" y1="440" x2="800" y2="485" stroke="#deded3" stroke-width="4"/>
    <line x1="700" y1="510" x2="665" y2="585" stroke="#deded3" stroke-width="4"/>
    <line x1="730" y1="510" x2="770" y2="585" stroke="#deded3" stroke-width="4"/></g>
    <rect x="990" y="533" width="56" height="36" rx="6" fill="#242a2e"/><circle cx="1018" cy="551" r="12" fill="#0b151b" stroke="#7a8c96" stroke-width="3"/><rect x="219" y="374" width="45" height="24" rx="4" fill="#3d474d"/><rect x="264" y="378" width="18" height="16" fill="#b8bec0"/><path d="M789 506h32l-6 35h-20z" fill="none" stroke="#dce5e8" stroke-width="3"/><line x1="805" y1="541" x2="805" y2="559" stroke="#dce5e8" stroke-width="3"/><rect x="182" y="341" width="36" height="56" rx="7" fill="#315446" stroke="#8db8a4" stroke-width="2"/>
    <g filter="url(#glow)"><circle cx="1018" cy="496" r="24" fill="#0b1014" stroke="#efb83c" stroke-width="4"/><text x="1018" y="503" text-anchor="middle" font-family="Arial" font-weight="700" font-size="19" fill="#efb83c">1</text></g><g filter="url(#glow)"><circle cx="249" cy="331" r="24" fill="#0b1014" stroke="#efb83c" stroke-width="4"/><text x="249" y="338" text-anchor="middle" font-family="Arial" font-weight="700" font-size="19" fill="#efb83c">2</text></g><g filter="url(#glow)"><circle cx="805" cy="469" r="24" fill="#0b1014" stroke="#efb83c" stroke-width="4"/><text x="805" y="476" text-anchor="middle" font-family="Arial" font-weight="700" font-size="19" fill="#efb83c">3</text></g><g filter="url(#glow)"><circle cx="200" cy="314" r="24" fill="#0b1014" stroke="#efb83c" stroke-width="4"/><text x="200" y="321" text-anchor="middle" font-family="Arial" font-weight="700" font-size="19" fill="#efb83c">4</text></g>
    
    <rect x="32" y="32" width="215" height="34" rx="5" fill="#071018" fill-opacity=".88" stroke="#efb83c" stroke-opacity=".35"/>
    <text x="48" y="55" font-family="Arial" font-weight="700" font-size="13" fill="#efb83c">CASE 0105 • فندق</text>
    <rect x="18" y="18" width="1144" height="644" rx="10" fill="none" stroke="#efb83c" stroke-opacity=".18"/>
    </svg>