<svg xmlns="http://www.w3.org/2000/svg" viewBox="0 0 1180 680">
    <defs>
      <linearGradient id="wall" x1="0" y1="0" x2="1" y2="1"><stop stop-color="#133039"/><stop offset="1" stop-color="#071318"/></linearGradient>
      <linearGradient id="floor" x1="0" y1="0" x2="0" y2="1"><stop stop-color="#456f78"/><stop offset=".32" stop-color="#202329"/><stop offset="1" stop-color="#080b0e"/></linearGradient>
      <radialGradient id="light"><stop stop-color="#f0c54e" stop-opacity=".43"/><stop offset=".42" stop-color="#f0c54e" stop-opacity=".10"/><stop offset="1" stop-color="#f0c54e" stop-opacity="0"/></radialGradient>
      <filter id="shadow"><feDropShadow dx="0" dy="15" stdDeviation="12" flood-opacity=".42"/></filter>
      <filter id="glow"><feDropShadow dx="0" dy="0" stdDeviation="8" flood-color="#f0c54e" flood-opacity=".35"/></filter>
      <filter id="soft"><feGaussianBlur stdDeviation="2.5"/></filter>
      <pattern id="floorGrid" width="110" height="60" patternUnits="userSpaceOnUse" patternTransform="skewX(-13)"><path d="M0 0h110v60H0z" fill="none" stroke="#596068" stroke-opacity=".18"/></pattern>
    </defs>
    <rect width="1180" height="680" fill="#071318"/>
    <rect x="18" y="18" width="1144" height="391" rx="10" fill="url(#wall)"/>
    <rect x="18" y="391" width="1144" height="271" fill="url(#floor)"/>
    <rect x="18" y="391" width="1144" height="271" fill="url(#floorGrid)"/>
    <ellipse cx="404" cy="95" rx="260" ry="210" fill="url(#light)"/>
    <rect x="91" y="86" width="322" height="217" fill="#081721" stroke="#45535d" stroke-width="10"/>
    <line x1="252.0" y1="86" x2="252.0" y2="303" stroke="#45535d" stroke-width="5"/>
    <line x1="91" y1="194.5" x2="413" y2="194.5" stroke="#45535d" stroke-width="5"/>
    
        <rect x="0" y="470" width="1180" height="210" fill="#171b1e"/><rect x="0" y="505" width="1180" height="15" fill="#e1b638"/>
        <rect x="0" y="130" width="1180" height="220" fill="#1d252a"/><rect x="95" y="160" width="990" height="150" rx="55" fill="#0b151c"/>
        <rect x="175" y="370" width="250" height="70" fill="#485158"/><rect x="740" y="370" width="250" height="70" fill="#485158"/>
        
    
    <g transform="rotate(51 468 468)" opacity=".9">
    <circle cx="468" cy="398" r="20" fill="none" stroke="#deded3" stroke-width="4"/>
    <rect x="440" y="420" width="56" height="95" rx="20" fill="none" stroke="#deded3" stroke-width="4"/>
    <line x1="450" y1="443" x2="383" y2="488" stroke="#deded3" stroke-width="4"/>
    <line x1="486" y1="443" x2="553" y2="488" stroke="#deded3" stroke-width="4"/>
    <line x1="453" y1="513" x2="418" y2="588" stroke="#deded3" stroke-width="4"/>
    <line x1="483" y1="513" x2="523" y2="588" stroke="#deded3" stroke-width="4"/></g>
    <rect x="718" y="506" width="56" height="36" rx="6" fill="#242a2e"/><circle cx="746" cy="524" r="12" fill="#0b151b" stroke="#7a8c96" stroke-width="3"/><ellipse cx="366" cy="471" rx="18" ry="42" transform="rotate(-14 366 471)" fill="#242322" stroke="#77716c" stroke-width="2"/><circle cx="173" cy="462" r="22" fill="#262d31" stroke="#d0aa49" stroke-width="4"/><line x1="173" y1="462" x2="183" y2="454" stroke="#d0aa49" stroke-width="2"/><line x1="173" y1="462" x2="171" y2="449" stroke="#d0aa49" stroke-width="2"/><rect x="280" y="503" width="36" height="60" rx="5" fill="#1a1f22" stroke="#8a969c" stroke-width="2"/><rect x="287" y="513" width="22" height="36" fill="#18323d"/>
    <g filter="url(#glow)"><circle cx="746" cy="469" r="24" fill="#0b1014" stroke="#f0c54e" stroke-width="4"/><text x="746" y="476" text-anchor="middle" font-family="Arial" font-weight="700" font-size="19" fill="#f0c54e">1</text></g><g filter="url(#glow)"><circle cx="366" cy="416" r="24" fill="#0b1014" stroke="#f0c54e" stroke-width="4"/><text x="366" y="423" text-anchor="middle" font-family="Arial" font-weight="700" font-size="19" fill="#f0c54e">2</text></g><g filter="url(#glow)"><circle cx="173" cy="407" r="24" fill="#0b1014" stroke="#f0c54e" stroke-width="4"/><text x="173" y="414" text-anchor="middle" font-family="Arial" font-weight="700" font-size="19" fill="#f0c54e">3</text></g><g filter="url(#glow)"><circle cx="298" cy="478" r="24" fill="#0b1014" stroke="#f0c54e" stroke-width="4"/><text x="298" y="485" text-anchor="middle" font-family="Arial" font-weight="700" font-size="19" fill="#f0c54e">4</text></g>
    
    <rect x="32" y="32" width="215" height="34" rx="5" fill="#071018" fill-opacity=".88" stroke="#f0c54e" stroke-opacity=".35"/>
    <text x="48" y="55" font-family="Arial" font-weight="700" font-size="13" fill="#f0c54e">CASE 0074 • محطة مترو</text>
    <rect x="18" y="18" width="1144" height="644" rx="10" fill="none" stroke="#f0c54e" stroke-opacity=".18"/>
    </svg>