<svg xmlns="http://www.w3.org/2000/svg" viewBox="0 0 1180 680">
    <defs>
      <linearGradient id="wall" x1="0" y1="0" x2="1" y2="1"><stop stop-color="#233025"/><stop offset="1" stop-color="#0b110c"/></linearGradient>
      <linearGradient id="floor" x1="0" y1="0" x2="0" y2="1"><stop stop-color="#516d55"/><stop offset=".32" stop-color="#202329"/><stop offset="1" stop-color="#080b0e"/></linearGradient>
      <radialGradient id="light"><stop stop-color="#ddba4a" stop-opacity=".43"/><stop offset=".42" stop-color="#ddba4a" stop-opacity=".10"/><stop offset="1" stop-color="#ddba4a" stop-opacity="0"/></radialGradient>
      <filter id="shadow"><feDropShadow dx="0" dy="15" stdDeviation="12" flood-opacity=".42"/></filter>
      <filter id="glow"><feDropShadow dx="0" dy="0" stdDeviation="8" flood-color="#ddba4a" flood-opacity=".35"/></filter>
      <filter id="soft"><feGaussianBlur stdDeviation="2.5"/></filter>
      <pattern id="floorGrid" width="110" height="60" patternUnits="userSpaceOnUse" patternTransform="skewX(-13)"><path d="M0 0h110v60H0z" fill="none" stroke="#596068" stroke-opacity=".18"/></pattern>
    </defs>
    <rect width="1180" height="680" fill="#0b110c"/>
    <rect x="18" y="18" width="1144" height="350" rx="10" fill="url(#wall)"/>
    <rect x="18" y="350" width="1144" height="312" fill="url(#floor)"/>
    <rect x="18" y="350" width="1144" height="312" fill="url(#floorGrid)"/>
    <ellipse cx="434" cy="160" rx="260" ry="210" fill="url(#light)"/>
    <rect x="137" y="72" width="365" height="227" fill="#081721" stroke="#45535d" stroke-width="10"/>
    <line x1="319.5" y1="72" x2="319.5" y2="299" stroke="#45535d" stroke-width="5"/>
    <line x1="137" y1="185.5" x2="502" y2="185.5" stroke="#45535d" stroke-width="5"/>
    
        <rect x="60" y="90" width="1060" height="470" rx="28" fill="#292725" stroke="#56616a" stroke-width="10"/>
        <rect x="125" y="145" width="255" height="150" fill="#091720" stroke="#44525b" stroke-width="6"/><rect x="465" y="145" width="255" height="150" fill="#091720" stroke="#44525b" stroke-width="6"/><rect x="805" y="145" width="255" height="150" fill="#091720" stroke="#44525b" stroke-width="6"/>
        <rect x="140" y="385" width="280" height="130" rx="22" fill="#735443"/><rect x="760" y="385" width="280" height="130" rx="22" fill="#735443"/>
        
    
    <g transform="rotate(24 712 459)" opacity=".9">
    <circle cx="712" cy="389" r="20" fill="none" stroke="#deded3" stroke-width="4"/>
    <rect x="684" y="411" width="56" height="95" rx="20" fill="none" stroke="#deded3" stroke-width="4"/>
    <line x1="694" y1="434" x2="627" y2="479" stroke="#deded3" stroke-width="4"/>
    <line x1="730" y1="434" x2="797" y2="479" stroke="#deded3" stroke-width="4"/>
    <line x1="697" y1="504" x2="662" y2="579" stroke="#deded3" stroke-width="4"/>
    <line x1="727" y1="504" x2="767" y2="579" stroke="#deded3" stroke-width="4"/></g>
    <path d="M715 461l55-10 25 10-25 10z" fill="#bac3c6" stroke="#6f777b"/><rect x="790" y="452" width="38" height="18" rx="5" fill="#49362d"/><rect x="353" y="428" width="45" height="24" rx="4" fill="#3d474d"/><rect x="398" y="432" width="18" height="16" fill="#b8bec0"/><circle cx="759" cy="486" r="13" fill="none" stroke="#d0aa49" stroke-width="5"/><line x1="772" y1="486" x2="814" y2="486" stroke="#d0aa49" stroke-width="5"/><line x1="799" y1="486" x2="799" y2="498" stroke="#d0aa49" stroke-width="5"/><rect x="219" y="414" width="64" height="40" rx="5" fill="#31414a" stroke="#d3aa3a" stroke-width="2"/><rect x="231" y="426" width="24" height="6" fill="#d3aa3a"/>
    <g filter="url(#glow)"><circle cx="760" cy="406" r="24" fill="#0b1014" stroke="#ddba4a" stroke-width="4"/><text x="760" y="413" text-anchor="middle" font-family="Arial" font-weight="700" font-size="19" fill="#ddba4a">1</text></g><g filter="url(#glow)"><circle cx="383" cy="385" r="24" fill="#0b1014" stroke="#ddba4a" stroke-width="4"/><text x="383" y="392" text-anchor="middle" font-family="Arial" font-weight="700" font-size="19" fill="#ddba4a">2</text></g><g filter="url(#glow)"><circle cx="779" cy="431" r="24" fill="#0b1014" stroke="#ddba4a" stroke-width="4"/><text x="779" y="438" text-anchor="middle" font-family="Arial" font-weight="700" font-size="19" fill="#ddba4a">3</text></g><g filter="url(#glow)"><circle cx="251" cy="379" r="24" fill="#0b1014" stroke="#ddba4a" stroke-width="4"/><text x="251" y="386" text-anchor="middle" font-family="Arial" font-weight="700" font-size="19" fill="#ddba4a">4</text></g>
    
    <rect x="32" y="32" width="215" height="34" rx="5" fill="#071018" fill-opacity=".88" stroke="#ddba4a" stroke-opacity=".35"/>
    <text x="48" y="55" font-family="Arial" font-weight="700" font-size="13" fill="#ddba4a">CASE 0266 • قطار ليلي</text>
    <rect x="18" y="18" width="1144" height="644" rx="10" fill="none" stroke="#ddba4a" stroke-opacity=".18"/>
    </svg>