<svg xmlns="http://www.w3.org/2000/svg" viewBox="0 0 1180 680">
    <defs>
      <linearGradient id="wall" x1="0" y1="0" x2="1" y2="1"><stop stop-color="#242737"/><stop offset="1" stop-color="#0d1017"/></linearGradient>
      <linearGradient id="floor" x1="0" y1="0" x2="0" y2="1"><stop stop-color="#62506e"/><stop offset=".32" stop-color="#202329"/><stop offset="1" stop-color="#080b0e"/></linearGradient>
      <radialGradient id="light"><stop stop-color="#d9a93b" stop-opacity=".43"/><stop offset=".42" stop-color="#d9a93b" stop-opacity=".10"/><stop offset="1" stop-color="#d9a93b" stop-opacity="0"/></radialGradient>
      <filter id="shadow"><feDropShadow dx="0" dy="15" stdDeviation="12" flood-opacity=".42"/></filter>
      <filter id="glow"><feDropShadow dx="0" dy="0" stdDeviation="8" flood-color="#d9a93b" flood-opacity=".35"/></filter>
      <filter id="soft"><feGaussianBlur stdDeviation="2.5"/></filter>
      <pattern id="floorGrid" width="110" height="60" patternUnits="userSpaceOnUse" patternTransform="skewX(-13)"><path d="M0 0h110v60H0z" fill="none" stroke="#596068" stroke-opacity=".18"/></pattern>
    </defs>
    <rect width="1180" height="680" fill="#0d1017"/>
    <rect x="18" y="18" width="1144" height="401" rx="10" fill="url(#wall)"/>
    <rect x="18" y="401" width="1144" height="261" fill="url(#floor)"/>
    <rect x="18" y="401" width="1144" height="261" fill="url(#floorGrid)"/>
    <ellipse cx="330" cy="141" rx="260" ry="210" fill="url(#light)"/>
    <rect x="132" y="89" width="313" height="174" fill="#081721" stroke="#45535d" stroke-width="10"/>
    <line x1="288.5" y1="89" x2="288.5" y2="263" stroke="#45535d" stroke-width="5"/>
    <line x1="132" y1="176.0" x2="445" y2="176.0" stroke="#45535d" stroke-width="5"/>
    
        <rect x="0" y="0" width="1180" height="680" fill="#3f3024"/><path d="M0 0h1180" stroke="#5b4430" stroke-width="14"/><rect x="220" y="360" width="650" height="165" fill="#644a35"/>
        <rect x="780" y="90" width="290" height="230" fill="#081721" stroke="#765a3e" stroke-width="14"/><path d="M800 250l80-95 70 70 60-100" fill="none" stroke="#bfd4df" stroke-width="8"/>
        
    <g opacity=".72" filter="url(#soft)"><ellipse cx="349" cy="589" rx="83" ry="25" fill="#76060b"/><circle cx="279" cy="564" r="10" fill="#76060b"/><circle cx="424" cy="607" r="7" fill="#76060b"/></g>
    <g transform="rotate(-33 664 476)" opacity=".9">
    <circle cx="664" cy="406" r="20" fill="none" stroke="#deded3" stroke-width="4"/>
    <rect x="636" y="428" width="56" height="95" rx="20" fill="none" stroke="#deded3" stroke-width="4"/>
    <line x1="646" y1="451" x2="579" y2="496" stroke="#deded3" stroke-width="4"/>
    <line x1="682" y1="451" x2="749" y2="496" stroke="#deded3" stroke-width="4"/>
    <line x1="649" y1="521" x2="614" y2="596" stroke="#deded3" stroke-width="4"/>
    <line x1="679" y1="521" x2="719" y2="596" stroke="#deded3" stroke-width="4"/></g>
    <ellipse cx="614" cy="446" rx="18" ry="42" transform="rotate(-24 614 446)" fill="#242322" stroke="#77716c" stroke-width="2"/><rect x="1008" y="523" width="45" height="24" rx="4" fill="#3d474d"/><rect x="1053" y="527" width="18" height="16" fill="#b8bec0"/><rect x="641" y="372" width="56" height="36" rx="6" fill="#242a2e"/><circle cx="669" cy="390" r="12" fill="#0b151b" stroke="#7a8c96" stroke-width="3"/><path d="M730 458h32l-6 35h-20z" fill="none" stroke="#dce5e8" stroke-width="3"/><line x1="746" y1="493" x2="746" y2="511" stroke="#dce5e8" stroke-width="3"/>
    <g filter="url(#glow)"><circle cx="614" cy="391" r="24" fill="#0b1014" stroke="#d9a93b" stroke-width="4"/><text x="614" y="398" text-anchor="middle" font-family="Arial" font-weight="700" font-size="19" fill="#d9a93b">1</text></g><g filter="url(#glow)"><circle cx="1038" cy="480" r="24" fill="#0b1014" stroke="#d9a93b" stroke-width="4"/><text x="1038" y="487" text-anchor="middle" font-family="Arial" font-weight="700" font-size="19" fill="#d9a93b">2</text></g><g filter="url(#glow)"><circle cx="669" cy="335" r="24" fill="#0b1014" stroke="#d9a93b" stroke-width="4"/><text x="669" y="342" text-anchor="middle" font-family="Arial" font-weight="700" font-size="19" fill="#d9a93b">3</text></g><g filter="url(#glow)"><circle cx="746" cy="421" r="24" fill="#0b1014" stroke="#d9a93b" stroke-width="4"/><text x="746" y="428" text-anchor="middle" font-family="Arial" font-weight="700" font-size="19" fill="#d9a93b">4</text></g>
    
    <rect x="32" y="32" width="215" height="34" rx="5" fill="#071018" fill-opacity=".88" stroke="#d9a93b" stroke-opacity=".35"/>
    <text x="48" y="55" font-family="Arial" font-weight="700" font-size="13" fill="#d9a93b">CASE 0465 • كوخ جبلي</text>
    <rect x="18" y="18" width="1144" height="644" rx="10" fill="none" stroke="#d9a93b" stroke-opacity=".18"/>
    </svg>