<svg xmlns="http://www.w3.org/2000/svg" viewBox="0 0 1180 680">
    <defs>
      <linearGradient id="wall" x1="0" y1="0" x2="1" y2="1"><stop stop-color="#242737"/><stop offset="1" stop-color="#0d1017"/></linearGradient>
      <linearGradient id="floor" x1="0" y1="0" x2="0" y2="1"><stop stop-color="#62506e"/><stop offset=".32" stop-color="#202329"/><stop offset="1" stop-color="#080b0e"/></linearGradient>
      <radialGradient id="light"><stop stop-color="#d9a93b" stop-opacity=".43"/><stop offset=".42" stop-color="#d9a93b" stop-opacity=".10"/><stop offset="1" stop-color="#d9a93b" stop-opacity="0"/></radialGradient>
      <filter id="shadow"><feDropShadow dx="0" dy="15" stdDeviation="12" flood-opacity=".42"/></filter>
      <filter id="glow"><feDropShadow dx="0" dy="0" stdDeviation="8" flood-color="#d9a93b" flood-opacity=".35"/></filter>
      <filter id="soft"><feGaussianBlur stdDeviation="2.5"/></filter>
      <pattern id="floorGrid" width="110" height="60" patternUnits="userSpaceOnUse" patternTransform="skewX(-13)"><path d="M0 0h110v60H0z" fill="none" stroke="#596068" stroke-opacity=".18"/></pattern>
    </defs>
    <rect width="1180" height="680" fill="#0d1017"/>
    <rect x="18" y="18" width="1144" height="384" rx="10" fill="url(#wall)"/>
    <rect x="18" y="384" width="1144" height="278" fill="url(#floor)"/>
    <rect x="18" y="384" width="1144" height="278" fill="url(#floorGrid)"/>
    <ellipse cx="490" cy="151" rx="260" ry="210" fill="url(#light)"/>
    <rect x="71" y="120" width="277" height="173" fill="#081721" stroke="#45535d" stroke-width="10"/>
    <line x1="209.5" y1="120" x2="209.5" y2="293" stroke="#45535d" stroke-width="5"/>
    <line x1="71" y1="206.5" x2="348" y2="206.5" stroke="#45535d" stroke-width="5"/>
    
        <rect x="75" y="85" width="1030" height="230" fill="#0b1a23" stroke="#4d5e69" stroke-width="9"/><line x1="420" y1="85" x2="420" y2="315" stroke="#4d5e69" stroke-width="5"/><line x1="760" y1="85" x2="760" y2="315" stroke="#4d5e69" stroke-width="5"/>
        <rect x="140" y="420" width="260" height="110" rx="22" fill="#4b565b"/><rect x="470" y="420" width="260" height="110" rx="22" fill="#4b565b"/><rect x="800" y="420" width="240" height="110" rx="22" fill="#4b565b"/>
        
    <g opacity=".72" filter="url(#soft)"><ellipse cx="318" cy="569" rx="83" ry="31" fill="#76060b"/><circle cx="248" cy="544" r="10" fill="#76060b"/><circle cx="393" cy="587" r="7" fill="#76060b"/></g>
    <g transform="rotate(-43 547 519)" opacity=".9">
    <circle cx="547" cy="449" r="20" fill="none" stroke="#deded3" stroke-width="4"/>
    <rect x="519" y="471" width="56" height="95" rx="20" fill="none" stroke="#deded3" stroke-width="4"/>
    <line x1="529" y1="494" x2="462" y2="539" stroke="#deded3" stroke-width="4"/>
    <line x1="565" y1="494" x2="632" y2="539" stroke="#deded3" stroke-width="4"/>
    <line x1="532" y1="564" x2="497" y2="639" stroke="#deded3" stroke-width="4"/>
    <line x1="562" y1="564" x2="602" y2="639" stroke="#deded3" stroke-width="4"/></g>
    <rect x="568" y="390" width="36" height="60" rx="5" fill="#1a1f22" stroke="#8a969c" stroke-width="2"/><rect x="575" y="400" width="22" height="36" fill="#18323d"/><rect x="331" y="353" width="64" height="40" rx="5" fill="#31414a" stroke="#d3aa3a" stroke-width="2"/><rect x="343" y="365" width="24" height="6" fill="#d3aa3a"/><rect x="512" y="421" width="45" height="24" rx="4" fill="#3d474d"/><rect x="557" y="425" width="18" height="16" fill="#b8bec0"/><circle cx="387" cy="564" r="13" fill="none" stroke="#d0aa49" stroke-width="5"/><line x1="400" y1="564" x2="442" y2="564" stroke="#d0aa49" stroke-width="5"/><line x1="427" y1="564" x2="427" y2="576" stroke="#d0aa49" stroke-width="5"/>
    <g filter="url(#glow)"><circle cx="586" cy="365" r="24" fill="#0b1014" stroke="#d9a93b" stroke-width="4"/><text x="586" y="372" text-anchor="middle" font-family="Arial" font-weight="700" font-size="19" fill="#d9a93b">1</text></g><g filter="url(#glow)"><circle cx="363" cy="318" r="24" fill="#0b1014" stroke="#d9a93b" stroke-width="4"/><text x="363" y="325" text-anchor="middle" font-family="Arial" font-weight="700" font-size="19" fill="#d9a93b">2</text></g><g filter="url(#glow)"><circle cx="542" cy="378" r="24" fill="#0b1014" stroke="#d9a93b" stroke-width="4"/><text x="542" y="385" text-anchor="middle" font-family="Arial" font-weight="700" font-size="19" fill="#d9a93b">3</text></g><g filter="url(#glow)"><circle cx="407" cy="509" r="24" fill="#0b1014" stroke="#d9a93b" stroke-width="4"/><text x="407" y="516" text-anchor="middle" font-family="Arial" font-weight="700" font-size="19" fill="#d9a93b">4</text></g>
    
    <rect x="32" y="32" width="215" height="34" rx="5" fill="#071018" fill-opacity=".88" stroke="#d9a93b" stroke-opacity=".35"/>
    <text x="48" y="55" font-family="Arial" font-weight="700" font-size="13" fill="#d9a93b">CASE 0484 • صالة مطار</text>
    <rect x="18" y="18" width="1144" height="644" rx="10" fill="none" stroke="#d9a93b" stroke-opacity=".18"/>
    </svg>