<svg xmlns="http://www.w3.org/2000/svg" viewBox="0 0 1180 680">
    <defs>
      <linearGradient id="wall" x1="0" y1="0" x2="1" y2="1"><stop stop-color="#242737"/><stop offset="1" stop-color="#0d1017"/></linearGradient>
      <linearGradient id="floor" x1="0" y1="0" x2="0" y2="1"><stop stop-color="#62506e"/><stop offset=".32" stop-color="#202329"/><stop offset="1" stop-color="#080b0e"/></linearGradient>
      <radialGradient id="light"><stop stop-color="#d9a93b" stop-opacity=".43"/><stop offset=".42" stop-color="#d9a93b" stop-opacity=".10"/><stop offset="1" stop-color="#d9a93b" stop-opacity="0"/></radialGradient>
      <filter id="shadow"><feDropShadow dx="0" dy="15" stdDeviation="12" flood-opacity=".42"/></filter>
      <filter id="glow"><feDropShadow dx="0" dy="0" stdDeviation="8" flood-color="#d9a93b" flood-opacity=".35"/></filter>
      <filter id="soft"><feGaussianBlur stdDeviation="2.5"/></filter>
      <pattern id="floorGrid" width="110" height="60" patternUnits="userSpaceOnUse" patternTransform="skewX(-13)"><path d="M0 0h110v60H0z" fill="none" stroke="#596068" stroke-opacity=".18"/></pattern>
    </defs>
    <rect width="1180" height="680" fill="#0d1017"/>
    <rect x="18" y="18" width="1144" height="391" rx="10" fill="url(#wall)"/>
    <rect x="18" y="391" width="1144" height="271" fill="url(#floor)"/>
    <rect x="18" y="391" width="1144" height="271" fill="url(#floorGrid)"/>
    <ellipse cx="671" cy="100" rx="260" ry="210" fill="url(#light)"/>
    <rect x="118" y="104" width="322" height="209" fill="#081721" stroke="#45535d" stroke-width="10"/>
    <line x1="279.0" y1="104" x2="279.0" y2="313" stroke="#45535d" stroke-width="5"/>
    <line x1="118" y1="208.5" x2="440" y2="208.5" stroke="#45535d" stroke-width="5"/>
    
        <rect x="60" y="90" width="1060" height="470" rx="28" fill="#292725" stroke="#56616a" stroke-width="10"/>
        <rect x="125" y="145" width="255" height="150" fill="#091720" stroke="#44525b" stroke-width="6"/><rect x="465" y="145" width="255" height="150" fill="#091720" stroke="#44525b" stroke-width="6"/><rect x="805" y="145" width="255" height="150" fill="#091720" stroke="#44525b" stroke-width="6"/>
        <rect x="140" y="385" width="280" height="130" rx="22" fill="#735443"/><rect x="760" y="385" width="280" height="130" rx="22" fill="#735443"/>
        
    <g opacity=".72" filter="url(#soft)"><ellipse cx="311" cy="536" rx="73" ry="31" fill="#76060b"/><circle cx="241" cy="511" r="10" fill="#76060b"/><circle cx="386" cy="554" r="7" fill="#76060b"/></g>
    
    <rect x="150" y="488" width="36" height="60" rx="5" fill="#1a1f22" stroke="#8a969c" stroke-width="2"/><rect x="157" y="498" width="22" height="36" fill="#18323d"/><path d="M923 403l55-10 25 10-25 10z" fill="#bac3c6" stroke="#6f777b"/><rect x="998" y="394" width="38" height="18" rx="5" fill="#49362d"/><rect x="953" y="459" width="60" height="46" transform="rotate(-15 983 481)" fill="#ded6c4" stroke="#8e8779"/><line x1="963" y1="471" x2="999" y2="471" stroke="#8d887e" stroke-width="1"/><line x1="963" y1="480" x2="999" y2="480" stroke="#8d887e" stroke-width="1"/><line x1="963" y1="489" x2="999" y2="489" stroke="#8d887e" stroke-width="1"/><ellipse cx="1024" cy="369" rx="18" ry="42" transform="rotate(-23 1024 369)" fill="#242322" stroke="#77716c" stroke-width="2"/>
    <g filter="url(#glow)"><circle cx="168" cy="463" r="24" fill="#0b1014" stroke="#d9a93b" stroke-width="4"/><text x="168" y="470" text-anchor="middle" font-family="Arial" font-weight="700" font-size="19" fill="#d9a93b">1</text></g><g filter="url(#glow)"><circle cx="968" cy="348" r="24" fill="#0b1014" stroke="#d9a93b" stroke-width="4"/><text x="968" y="355" text-anchor="middle" font-family="Arial" font-weight="700" font-size="19" fill="#d9a93b">2</text></g><g filter="url(#glow)"><circle cx="983" cy="426" r="24" fill="#0b1014" stroke="#d9a93b" stroke-width="4"/><text x="983" y="433" text-anchor="middle" font-family="Arial" font-weight="700" font-size="19" fill="#d9a93b">3</text></g><g filter="url(#glow)"><circle cx="1024" cy="314" r="24" fill="#0b1014" stroke="#d9a93b" stroke-width="4"/><text x="1024" y="321" text-anchor="middle" font-family="Arial" font-weight="700" font-size="19" fill="#d9a93b">4</text></g>
    
    <rect x="32" y="32" width="215" height="34" rx="5" fill="#071018" fill-opacity=".88" stroke="#d9a93b" stroke-opacity=".35"/>
    <text x="48" y="55" font-family="Arial" font-weight="700" font-size="13" fill="#d9a93b">CASE 0110 • قطار ليلي</text>
    <rect x="18" y="18" width="1144" height="644" rx="10" fill="none" stroke="#d9a93b" stroke-opacity=".18"/>
    </svg>