<svg xmlns="http://www.w3.org/2000/svg" viewBox="0 0 1180 680">
    <defs>
      <linearGradient id="wall" x1="0" y1="0" x2="1" y2="1"><stop stop-color="#133039"/><stop offset="1" stop-color="#071318"/></linearGradient>
      <linearGradient id="floor" x1="0" y1="0" x2="0" y2="1"><stop stop-color="#456f78"/><stop offset=".32" stop-color="#202329"/><stop offset="1" stop-color="#080b0e"/></linearGradient>
      <radialGradient id="light"><stop stop-color="#f0c54e" stop-opacity=".43"/><stop offset=".42" stop-color="#f0c54e" stop-opacity=".10"/><stop offset="1" stop-color="#f0c54e" stop-opacity="0"/></radialGradient>
      <filter id="shadow"><feDropShadow dx="0" dy="15" stdDeviation="12" flood-opacity=".42"/></filter>
      <filter id="glow"><feDropShadow dx="0" dy="0" stdDeviation="8" flood-color="#f0c54e" flood-opacity=".35"/></filter>
      <filter id="soft"><feGaussianBlur stdDeviation="2.5"/></filter>
      <pattern id="floorGrid" width="110" height="60" patternUnits="userSpaceOnUse" patternTransform="skewX(-13)"><path d="M0 0h110v60H0z" fill="none" stroke="#596068" stroke-opacity=".18"/></pattern>
    </defs>
    <rect width="1180" height="680" fill="#071318"/>
    <rect x="18" y="18" width="1144" height="385" rx="10" fill="url(#wall)"/>
    <rect x="18" y="385" width="1144" height="277" fill="url(#floor)"/>
    <rect x="18" y="385" width="1144" height="277" fill="url(#floorGrid)"/>
    <ellipse cx="626" cy="74" rx="260" ry="210" fill="url(#light)"/>
    <rect x="131" y="105" width="352" height="191" fill="#081721" stroke="#45535d" stroke-width="10"/>
    <line x1="307.0" y1="105" x2="307.0" y2="296" stroke="#45535d" stroke-width="5"/>
    <line x1="131" y1="200.5" x2="483" y2="200.5" stroke="#45535d" stroke-width="5"/>
    
        <rect x="60" y="90" width="1060" height="470" rx="28" fill="#292725" stroke="#56616a" stroke-width="10"/>
        <rect x="125" y="145" width="255" height="150" fill="#091720" stroke="#44525b" stroke-width="6"/><rect x="465" y="145" width="255" height="150" fill="#091720" stroke="#44525b" stroke-width="6"/><rect x="805" y="145" width="255" height="150" fill="#091720" stroke="#44525b" stroke-width="6"/>
        <rect x="140" y="385" width="280" height="130" rx="22" fill="#735443"/><rect x="760" y="385" width="280" height="130" rx="22" fill="#735443"/>
        
    <g opacity=".72" filter="url(#soft)"><ellipse cx="814" cy="570" rx="60" ry="27" fill="#76060b"/><circle cx="744" cy="545" r="10" fill="#76060b"/><circle cx="889" cy="588" r="7" fill="#76060b"/></g>
    <g transform="rotate(41 552 497)" opacity=".9">
    <circle cx="552" cy="427" r="20" fill="none" stroke="#deded3" stroke-width="4"/>
    <rect x="524" y="449" width="56" height="95" rx="20" fill="none" stroke="#deded3" stroke-width="4"/>
    <line x1="534" y1="472" x2="467" y2="517" stroke="#deded3" stroke-width="4"/>
    <line x1="570" y1="472" x2="637" y2="517" stroke="#deded3" stroke-width="4"/>
    <line x1="537" y1="542" x2="502" y2="617" stroke="#deded3" stroke-width="4"/>
    <line x1="567" y1="542" x2="607" y2="617" stroke="#deded3" stroke-width="4"/></g>
    <path d="M644 514h32l-6 35h-20z" fill="none" stroke="#dce5e8" stroke-width="3"/><line x1="660" y1="549" x2="660" y2="567" stroke="#dce5e8" stroke-width="3"/><rect x="313" y="504" width="56" height="36" rx="6" fill="#242a2e"/><circle cx="341" cy="522" r="12" fill="#0b151b" stroke="#7a8c96" stroke-width="3"/><circle cx="697" cy="418" r="22" fill="#262d31" stroke="#d0aa49" stroke-width="4"/><line x1="697" y1="418" x2="707" y2="410" stroke="#d0aa49" stroke-width="2"/><line x1="697" y1="418" x2="695" y2="405" stroke="#d0aa49" stroke-width="2"/><rect x="486" y="384" width="36" height="56" rx="7" fill="#315446" stroke="#8db8a4" stroke-width="2"/>
    <g filter="url(#glow)"><circle cx="660" cy="477" r="24" fill="#0b1014" stroke="#f0c54e" stroke-width="4"/><text x="660" y="484" text-anchor="middle" font-family="Arial" font-weight="700" font-size="19" fill="#f0c54e">1</text></g><g filter="url(#glow)"><circle cx="341" cy="467" r="24" fill="#0b1014" stroke="#f0c54e" stroke-width="4"/><text x="341" y="474" text-anchor="middle" font-family="Arial" font-weight="700" font-size="19" fill="#f0c54e">2</text></g><g filter="url(#glow)"><circle cx="697" cy="363" r="24" fill="#0b1014" stroke="#f0c54e" stroke-width="4"/><text x="697" y="370" text-anchor="middle" font-family="Arial" font-weight="700" font-size="19" fill="#f0c54e">3</text></g><g filter="url(#glow)"><circle cx="504" cy="357" r="24" fill="#0b1014" stroke="#f0c54e" stroke-width="4"/><text x="504" y="364" text-anchor="middle" font-family="Arial" font-weight="700" font-size="19" fill="#f0c54e">4</text></g>
    
    <rect x="32" y="32" width="215" height="34" rx="5" fill="#071018" fill-opacity=".88" stroke="#f0c54e" stroke-opacity=".35"/>
    <text x="48" y="55" font-family="Arial" font-weight="700" font-size="13" fill="#f0c54e">CASE 0162 • قطار ليلي</text>
    <rect x="18" y="18" width="1144" height="644" rx="10" fill="none" stroke="#f0c54e" stroke-opacity=".18"/>
    </svg>