<svg xmlns="http://www.w3.org/2000/svg" viewBox="0 0 1180 680">
    <defs>
      <linearGradient id="wall" x1="0" y1="0" x2="1" y2="1"><stop stop-color="#16232d"/><stop offset="1" stop-color="#091018"/></linearGradient>
      <linearGradient id="floor" x1="0" y1="0" x2="0" y2="1"><stop stop-color="#7d593c"/><stop offset=".32" stop-color="#202329"/><stop offset="1" stop-color="#080b0e"/></linearGradient>
      <radialGradient id="light"><stop stop-color="#f0bd43" stop-opacity=".43"/><stop offset=".42" stop-color="#f0bd43" stop-opacity=".10"/><stop offset="1" stop-color="#f0bd43" stop-opacity="0"/></radialGradient>
      <filter id="shadow"><feDropShadow dx="0" dy="15" stdDeviation="12" flood-opacity=".42"/></filter>
      <filter id="glow"><feDropShadow dx="0" dy="0" stdDeviation="8" flood-color="#f0bd43" flood-opacity=".35"/></filter>
      <filter id="soft"><feGaussianBlur stdDeviation="2.5"/></filter>
      <pattern id="floorGrid" width="110" height="60" patternUnits="userSpaceOnUse" patternTransform="skewX(-13)"><path d="M0 0h110v60H0z" fill="none" stroke="#596068" stroke-opacity=".18"/></pattern>
    </defs>
    <rect width="1180" height="680" fill="#091018"/>
    <rect x="18" y="18" width="1144" height="361" rx="10" fill="url(#wall)"/>
    <rect x="18" y="361" width="1144" height="301" fill="url(#floor)"/>
    <rect x="18" y="361" width="1144" height="301" fill="url(#floorGrid)"/>
    <ellipse cx="676" cy="73" rx="260" ry="210" fill="url(#light)"/>
    <rect x="179" y="82" width="349" height="174" fill="#081721" stroke="#45535d" stroke-width="10"/>
    <line x1="353.5" y1="82" x2="353.5" y2="256" stroke="#45535d" stroke-width="5"/>
    <line x1="179" y1="169.0" x2="528" y2="169.0" stroke="#45535d" stroke-width="5"/>
    
        <rect x="105" y="120" width="280" height="230" fill="#745a3d" stroke="#c69b4f" stroke-width="10"/><rect x="130" y="145" width="230" height="180" fill="#243643"/>
        <rect x="450" y="105" width="280" height="245" fill="#745a3d" stroke="#c69b4f" stroke-width="10"/><rect x="475" y="130" width="230" height="195" fill="#513941"/>
        <rect x="795" y="130" width="280" height="220" fill="#745a3d" stroke="#c69b4f" stroke-width="10"/><rect x="820" y="155" width="230" height="170" fill="#384f45"/>
        <rect x="455" y="410" width="270" height="95" fill="#625240"/>
        
    <g opacity=".72" filter="url(#soft)"><ellipse cx="616" cy="504" rx="56" ry="25" fill="#76060b"/><circle cx="546" cy="479" r="10" fill="#76060b"/><circle cx="691" cy="522" r="7" fill="#76060b"/></g>
    <g transform="rotate(9 411 508)" opacity=".9">
    <circle cx="411" cy="438" r="20" fill="none" stroke="#deded3" stroke-width="4"/>
    <rect x="383" y="460" width="56" height="95" rx="20" fill="none" stroke="#deded3" stroke-width="4"/>
    <line x1="393" y1="483" x2="326" y2="528" stroke="#deded3" stroke-width="4"/>
    <line x1="429" y1="483" x2="496" y2="528" stroke="#deded3" stroke-width="4"/>
    <line x1="396" y1="553" x2="361" y2="628" stroke="#deded3" stroke-width="4"/>
    <line x1="426" y1="553" x2="466" y2="628" stroke="#deded3" stroke-width="4"/></g>
    <path d="M338 395l55-10 25 10-25 10z" fill="#bac3c6" stroke="#6f777b"/><rect x="413" y="386" width="38" height="18" rx="5" fill="#49362d"/><rect x="375" y="456" width="60" height="46" transform="rotate(2 405 478)" fill="#ded6c4" stroke="#8e8779"/><line x1="385" y1="468" x2="421" y2="468" stroke="#8d887e" stroke-width="1"/><line x1="385" y1="477" x2="421" y2="477" stroke="#8d887e" stroke-width="1"/><line x1="385" y1="486" x2="421" y2="486" stroke="#8d887e" stroke-width="1"/><circle cx="171" cy="432" r="22" fill="#262d31" stroke="#d0aa49" stroke-width="4"/><line x1="171" y1="432" x2="181" y2="424" stroke="#d0aa49" stroke-width="2"/><line x1="171" y1="432" x2="169" y2="419" stroke="#d0aa49" stroke-width="2"/><rect x="979" y="501" width="45" height="24" rx="4" fill="#3d474d"/><rect x="1024" y="505" width="18" height="16" fill="#b8bec0"/>
    <g filter="url(#glow)"><circle cx="383" cy="340" r="24" fill="#0b1014" stroke="#f0bd43" stroke-width="4"/><text x="383" y="347" text-anchor="middle" font-family="Arial" font-weight="700" font-size="19" fill="#f0bd43">1</text></g><g filter="url(#glow)"><circle cx="405" cy="423" r="24" fill="#0b1014" stroke="#f0bd43" stroke-width="4"/><text x="405" y="430" text-anchor="middle" font-family="Arial" font-weight="700" font-size="19" fill="#f0bd43">2</text></g><g filter="url(#glow)"><circle cx="171" cy="377" r="24" fill="#0b1014" stroke="#f0bd43" stroke-width="4"/><text x="171" y="384" text-anchor="middle" font-family="Arial" font-weight="700" font-size="19" fill="#f0bd43">3</text></g><g filter="url(#glow)"><circle cx="1009" cy="458" r="24" fill="#0b1014" stroke="#f0bd43" stroke-width="4"/><text x="1009" y="465" text-anchor="middle" font-family="Arial" font-weight="700" font-size="19" fill="#f0bd43">4</text></g>
    
    <rect x="32" y="32" width="215" height="34" rx="5" fill="#071018" fill-opacity=".88" stroke="#f0bd43" stroke-opacity=".35"/>
    <text x="48" y="55" font-family="Arial" font-weight="700" font-size="13" fill="#f0bd43">CASE 0243 • متحف</text>
    <rect x="18" y="18" width="1144" height="644" rx="10" fill="none" stroke="#f0bd43" stroke-opacity=".18"/>
    </svg>