<svg xmlns="http://www.w3.org/2000/svg" viewBox="0 0 1180 680">
    <defs>
      <linearGradient id="wall" x1="0" y1="0" x2="1" y2="1"><stop stop-color="#2a211d"/><stop offset="1" stop-color="#0a0e12"/></linearGradient>
      <linearGradient id="floor" x1="0" y1="0" x2="0" y2="1"><stop stop-color="#a17b55"/><stop offset=".32" stop-color="#202329"/><stop offset="1" stop-color="#080b0e"/></linearGradient>
      <radialGradient id="light"><stop stop-color="#efb83c" stop-opacity=".43"/><stop offset=".42" stop-color="#efb83c" stop-opacity=".10"/><stop offset="1" stop-color="#efb83c" stop-opacity="0"/></radialGradient>
      <filter id="shadow"><feDropShadow dx="0" dy="15" stdDeviation="12" flood-opacity=".42"/></filter>
      <filter id="glow"><feDropShadow dx="0" dy="0" stdDeviation="8" flood-color="#efb83c" flood-opacity=".35"/></filter>
      <filter id="soft"><feGaussianBlur stdDeviation="2.5"/></filter>
      <pattern id="floorGrid" width="110" height="60" patternUnits="userSpaceOnUse" patternTransform="skewX(-13)"><path d="M0 0h110v60H0z" fill="none" stroke="#596068" stroke-opacity=".18"/></pattern>
    </defs>
    <rect width="1180" height="680" fill="#0a0e12"/>
    <rect x="18" y="18" width="1144" height="351" rx="10" fill="url(#wall)"/>
    <rect x="18" y="351" width="1144" height="311" fill="url(#floor)"/>
    <rect x="18" y="351" width="1144" height="311" fill="url(#floorGrid)"/>
    <ellipse cx="405" cy="159" rx="260" ry="210" fill="url(#light)"/>
    <rect x="127" y="79" width="354" height="235" fill="#081721" stroke="#45535d" stroke-width="10"/>
    <line x1="304.0" y1="79" x2="304.0" y2="314" stroke="#45535d" stroke-width="5"/>
    <line x1="127" y1="196.5" x2="481" y2="196.5" stroke="#45535d" stroke-width="5"/>
    <rect x="96" y="341" width="163" height="105" fill="#70543a" stroke="#3c2e24" stroke-width="4" filter="url(#shadow)"/><rect x="331" y="369" width="163" height="107" fill="#806244" stroke="#3c2e24" stroke-width="4" filter="url(#shadow)"/><rect x="492" y="358" width="170" height="103" fill="#70543a" stroke="#3c2e24" stroke-width="4" filter="url(#shadow)"/><rect x="705" y="364" width="143" height="113" fill="#644a34" stroke="#3c2e24" stroke-width="4" filter="url(#shadow)"/><rect x="869" y="368" width="144" height="81" fill="#644a34" stroke="#3c2e24" stroke-width="4" filter="url(#shadow)"/><rect x="142" y="478" width="139" height="107" fill="#644a34" stroke="#3c2e24" stroke-width="4" filter="url(#shadow)"/><rect x="286" y="472" width="131" height="94" fill="#806244" stroke="#3c2e24" stroke-width="4" filter="url(#shadow)"/><rect x="496" y="478" width="159" height="109" fill="#70543a" stroke="#3c2e24" stroke-width="4" filter="url(#shadow)"/><rect x="688" y="461" width="172" height="96" fill="#806244" stroke="#3c2e24" stroke-width="4" filter="url(#shadow)"/><rect x="35" y="100" width="110" height="470" fill="#242b2f"/><rect x="1050" y="95" width="90" height="475" fill="#242b2f"/>
    <g opacity=".72" filter="url(#soft)"><ellipse cx="468" cy="574" rx="85" ry="34" fill="#76060b"/><circle cx="398" cy="549" r="10" fill="#76060b"/><circle cx="543" cy="592" r="7" fill="#76060b"/></g>
    <g transform="rotate(45 534 475)" opacity=".9">
    <circle cx="534" cy="405" r="20" fill="none" stroke="#deded3" stroke-width="4"/>
    <rect x="506" y="427" width="56" height="95" rx="20" fill="none" stroke="#deded3" stroke-width="4"/>
    <line x1="516" y1="450" x2="449" y2="495" stroke="#deded3" stroke-width="4"/>
    <line x1="552" y1="450" x2="619" y2="495" stroke="#deded3" stroke-width="4"/>
    <line x1="519" y1="520" x2="484" y2="595" stroke="#deded3" stroke-width="4"/>
    <line x1="549" y1="520" x2="589" y2="595" stroke="#deded3" stroke-width="4"/></g>
    <path d="M392 433l55-10 25 10-25 10z" fill="#bac3c6" stroke="#6f777b"/><rect x="467" y="424" width="38" height="18" rx="5" fill="#49362d"/><path d="M380 542h32l-6 35h-20z" fill="none" stroke="#dce5e8" stroke-width="3"/><line x1="396" y1="577" x2="396" y2="595" stroke="#dce5e8" stroke-width="3"/><rect x="368" y="425" width="76" height="50" rx="8" fill="#3d3029" stroke="#8f6d50" stroke-width="3"/><path d="M388 425q18-24 36 0" fill="none" stroke="#8f6d50" stroke-width="4"/><rect x="540" y="545" width="45" height="24" rx="4" fill="#3d474d"/><rect x="585" y="549" width="18" height="16" fill="#b8bec0"/>
    <g filter="url(#glow)"><circle cx="437" cy="378" r="24" fill="#0b1014" stroke="#efb83c" stroke-width="4"/><text x="437" y="385" text-anchor="middle" font-family="Arial" font-weight="700" font-size="19" fill="#efb83c">1</text></g><g filter="url(#glow)"><circle cx="396" cy="505" r="24" fill="#0b1014" stroke="#efb83c" stroke-width="4"/><text x="396" y="512" text-anchor="middle" font-family="Arial" font-weight="700" font-size="19" fill="#efb83c">2</text></g><g filter="url(#glow)"><circle cx="406" cy="392" r="24" fill="#0b1014" stroke="#efb83c" stroke-width="4"/><text x="406" y="399" text-anchor="middle" font-family="Arial" font-weight="700" font-size="19" fill="#efb83c">3</text></g><g filter="url(#glow)"><circle cx="570" cy="502" r="24" fill="#0b1014" stroke="#efb83c" stroke-width="4"/><text x="570" y="509" text-anchor="middle" font-family="Arial" font-weight="700" font-size="19" fill="#efb83c">4</text></g>
    
    <rect x="32" y="32" width="215" height="34" rx="5" fill="#071018" fill-opacity=".88" stroke="#efb83c" stroke-opacity=".35"/>
    <text x="48" y="55" font-family="Arial" font-weight="700" font-size="13" fill="#efb83c">CASE 0083 • مستودع</text>
    <rect x="18" y="18" width="1144" height="644" rx="10" fill="none" stroke="#efb83c" stroke-opacity=".18"/>
    </svg>