<svg xmlns="http://www.w3.org/2000/svg" viewBox="0 0 1180 680">
    <defs>
      <linearGradient id="wall" x1="0" y1="0" x2="1" y2="1"><stop stop-color="#242737"/><stop offset="1" stop-color="#0d1017"/></linearGradient>
      <linearGradient id="floor" x1="0" y1="0" x2="0" y2="1"><stop stop-color="#62506e"/><stop offset=".32" stop-color="#202329"/><stop offset="1" stop-color="#080b0e"/></linearGradient>
      <radialGradient id="light"><stop stop-color="#d9a93b" stop-opacity=".43"/><stop offset=".42" stop-color="#d9a93b" stop-opacity=".10"/><stop offset="1" stop-color="#d9a93b" stop-opacity="0"/></radialGradient>
      <filter id="shadow"><feDropShadow dx="0" dy="15" stdDeviation="12" flood-opacity=".42"/></filter>
      <filter id="glow"><feDropShadow dx="0" dy="0" stdDeviation="8" flood-color="#d9a93b" flood-opacity=".35"/></filter>
      <filter id="soft"><feGaussianBlur stdDeviation="2.5"/></filter>
      <pattern id="floorGrid" width="110" height="60" patternUnits="userSpaceOnUse" patternTransform="skewX(-13)"><path d="M0 0h110v60H0z" fill="none" stroke="#596068" stroke-opacity=".18"/></pattern>
    </defs>
    <rect width="1180" height="680" fill="#0d1017"/>
    <rect x="18" y="18" width="1144" height="389" rx="10" fill="url(#wall)"/>
    <rect x="18" y="389" width="1144" height="273" fill="url(#floor)"/>
    <rect x="18" y="389" width="1144" height="273" fill="url(#floorGrid)"/>
    <ellipse cx="825" cy="159" rx="260" ry="210" fill="url(#light)"/>
    <rect x="149" y="110" width="304" height="199" fill="#081721" stroke="#45535d" stroke-width="10"/>
    <line x1="301.0" y1="110" x2="301.0" y2="309" stroke="#45535d" stroke-width="5"/>
    <line x1="149" y1="209.5" x2="453" y2="209.5" stroke="#45535d" stroke-width="5"/>
    
        <rect x="60" y="90" width="1060" height="470" rx="28" fill="#292725" stroke="#56616a" stroke-width="10"/>
        <rect x="125" y="145" width="255" height="150" fill="#091720" stroke="#44525b" stroke-width="6"/><rect x="465" y="145" width="255" height="150" fill="#091720" stroke="#44525b" stroke-width="6"/><rect x="805" y="145" width="255" height="150" fill="#091720" stroke="#44525b" stroke-width="6"/>
        <rect x="140" y="385" width="280" height="130" rx="22" fill="#735443"/><rect x="760" y="385" width="280" height="130" rx="22" fill="#735443"/>
        
    
    <g transform="rotate(-40 721 453)" opacity=".9">
    <circle cx="721" cy="383" r="20" fill="none" stroke="#deded3" stroke-width="4"/>
    <rect x="693" y="405" width="56" height="95" rx="20" fill="none" stroke="#deded3" stroke-width="4"/>
    <line x1="703" y1="428" x2="636" y2="473" stroke="#deded3" stroke-width="4"/>
    <line x1="739" y1="428" x2="806" y2="473" stroke="#deded3" stroke-width="4"/>
    <line x1="706" y1="498" x2="671" y2="573" stroke="#deded3" stroke-width="4"/>
    <line x1="736" y1="498" x2="776" y2="573" stroke="#deded3" stroke-width="4"/></g>
    <ellipse cx="905" cy="526" rx="18" ry="42" transform="rotate(12 905 526)" fill="#242322" stroke="#77716c" stroke-width="2"/><rect x="962" y="475" width="60" height="46" transform="rotate(-3 992 497)" fill="#ded6c4" stroke="#8e8779"/><line x1="972" y1="487" x2="1008" y2="487" stroke="#8d887e" stroke-width="1"/><line x1="972" y1="496" x2="1008" y2="496" stroke="#8d887e" stroke-width="1"/><line x1="972" y1="505" x2="1008" y2="505" stroke="#8d887e" stroke-width="1"/><rect x="362" y="405" width="56" height="36" rx="6" fill="#242a2e"/><circle cx="390" cy="423" r="12" fill="#0b151b" stroke="#7a8c96" stroke-width="3"/><rect x="271" y="459" width="76" height="50" rx="8" fill="#3d3029" stroke="#8f6d50" stroke-width="3"/><path d="M291 459q18-24 36 0" fill="none" stroke="#8f6d50" stroke-width="4"/>
    <g filter="url(#glow)"><circle cx="905" cy="471" r="24" fill="#0b1014" stroke="#d9a93b" stroke-width="4"/><text x="905" y="478" text-anchor="middle" font-family="Arial" font-weight="700" font-size="19" fill="#d9a93b">1</text></g><g filter="url(#glow)"><circle cx="992" cy="442" r="24" fill="#0b1014" stroke="#d9a93b" stroke-width="4"/><text x="992" y="449" text-anchor="middle" font-family="Arial" font-weight="700" font-size="19" fill="#d9a93b">2</text></g><g filter="url(#glow)"><circle cx="390" cy="368" r="24" fill="#0b1014" stroke="#d9a93b" stroke-width="4"/><text x="390" y="375" text-anchor="middle" font-family="Arial" font-weight="700" font-size="19" fill="#d9a93b">3</text></g><g filter="url(#glow)"><circle cx="309" cy="426" r="24" fill="#0b1014" stroke="#d9a93b" stroke-width="4"/><text x="309" y="433" text-anchor="middle" font-family="Arial" font-weight="700" font-size="19" fill="#d9a93b">4</text></g>
    
    <rect x="32" y="32" width="215" height="34" rx="5" fill="#071018" fill-opacity=".88" stroke="#d9a93b" stroke-opacity=".35"/>
    <text x="48" y="55" font-family="Arial" font-weight="700" font-size="13" fill="#d9a93b">CASE 0344 • قطار ليلي</text>
    <rect x="18" y="18" width="1144" height="644" rx="10" fill="none" stroke="#d9a93b" stroke-opacity=".18"/>
    </svg>