<svg xmlns="http://www.w3.org/2000/svg" viewBox="0 0 1180 680">
    <defs>
      <linearGradient id="wall" x1="0" y1="0" x2="1" y2="1"><stop stop-color="#16232d"/><stop offset="1" stop-color="#091018"/></linearGradient>
      <linearGradient id="floor" x1="0" y1="0" x2="0" y2="1"><stop stop-color="#7d593c"/><stop offset=".32" stop-color="#202329"/><stop offset="1" stop-color="#080b0e"/></linearGradient>
      <radialGradient id="light"><stop stop-color="#f0bd43" stop-opacity=".43"/><stop offset=".42" stop-color="#f0bd43" stop-opacity=".10"/><stop offset="1" stop-color="#f0bd43" stop-opacity="0"/></radialGradient>
      <filter id="shadow"><feDropShadow dx="0" dy="15" stdDeviation="12" flood-opacity=".42"/></filter>
      <filter id="glow"><feDropShadow dx="0" dy="0" stdDeviation="8" flood-color="#f0bd43" flood-opacity=".35"/></filter>
      <filter id="soft"><feGaussianBlur stdDeviation="2.5"/></filter>
      <pattern id="floorGrid" width="110" height="60" patternUnits="userSpaceOnUse" patternTransform="skewX(-13)"><path d="M0 0h110v60H0z" fill="none" stroke="#596068" stroke-opacity=".18"/></pattern>
    </defs>
    <rect width="1180" height="680" fill="#091018"/>
    <rect x="18" y="18" width="1144" height="377" rx="10" fill="url(#wall)"/>
    <rect x="18" y="377" width="1144" height="285" fill="url(#floor)"/>
    <rect x="18" y="377" width="1144" height="285" fill="url(#floorGrid)"/>
    <ellipse cx="267" cy="96" rx="260" ry="210" fill="url(#light)"/>
    <rect x="152" y="100" width="345" height="176" fill="#081721" stroke="#45535d" stroke-width="10"/>
    <line x1="324.5" y1="100" x2="324.5" y2="276" stroke="#45535d" stroke-width="5"/>
    <line x1="152" y1="188.0" x2="497" y2="188.0" stroke="#45535d" stroke-width="5"/>
    
        <ellipse cx="555" cy="430" rx="230" ry="80" fill="#624735" filter="url(#shadow)"/><rect x="538" y="430" width="34" height="140" fill="#35261f"/>
        <circle cx="520" cy="385" r="27" fill="#741f32"/><rect x="507" y="315" width="26" height="70" fill="#bfa275"/>
        <rect x="190" y="375" width="150" height="150" rx="20" fill="#3f454a"/><rect x="770" y="375" width="150" height="150" rx="20" fill="#3f454a"/>
        
    
    <g transform="rotate(23 539 442)" opacity=".9">
    <circle cx="539" cy="372" r="20" fill="none" stroke="#deded3" stroke-width="4"/>
    <rect x="511" y="394" width="56" height="95" rx="20" fill="none" stroke="#deded3" stroke-width="4"/>
    <line x1="521" y1="417" x2="454" y2="462" stroke="#deded3" stroke-width="4"/>
    <line x1="557" y1="417" x2="624" y2="462" stroke="#deded3" stroke-width="4"/>
    <line x1="524" y1="487" x2="489" y2="562" stroke="#deded3" stroke-width="4"/>
    <line x1="554" y1="487" x2="594" y2="562" stroke="#deded3" stroke-width="4"/></g>
    <rect x="955" y="550" width="56" height="36" rx="6" fill="#242a2e"/><circle cx="983" cy="568" r="12" fill="#0b151b" stroke="#7a8c96" stroke-width="3"/><rect x="433" y="406" width="36" height="56" rx="7" fill="#315446" stroke="#8db8a4" stroke-width="2"/><ellipse cx="861" cy="503" rx="18" ry="42" transform="rotate(13 861 503)" fill="#242322" stroke="#77716c" stroke-width="2"/><rect x="690" y="443" width="45" height="24" rx="4" fill="#3d474d"/><rect x="735" y="447" width="18" height="16" fill="#b8bec0"/>
    <g filter="url(#glow)"><circle cx="983" cy="513" r="24" fill="#0b1014" stroke="#f0bd43" stroke-width="4"/><text x="983" y="520" text-anchor="middle" font-family="Arial" font-weight="700" font-size="19" fill="#f0bd43">1</text></g><g filter="url(#glow)"><circle cx="451" cy="379" r="24" fill="#0b1014" stroke="#f0bd43" stroke-width="4"/><text x="451" y="386" text-anchor="middle" font-family="Arial" font-weight="700" font-size="19" fill="#f0bd43">2</text></g><g filter="url(#glow)"><circle cx="861" cy="448" r="24" fill="#0b1014" stroke="#f0bd43" stroke-width="4"/><text x="861" y="455" text-anchor="middle" font-family="Arial" font-weight="700" font-size="19" fill="#f0bd43">3</text></g><g filter="url(#glow)"><circle cx="720" cy="400" r="24" fill="#0b1014" stroke="#f0bd43" stroke-width="4"/><text x="720" y="407" text-anchor="middle" font-family="Arial" font-weight="700" font-size="19" fill="#f0bd43">4</text></g>
    
    <rect x="32" y="32" width="215" height="34" rx="5" fill="#071018" fill-opacity=".88" stroke="#f0bd43" stroke-opacity=".35"/>
    <text x="48" y="55" font-family="Arial" font-weight="700" font-size="13" fill="#f0bd43">CASE 0452 • مطعم فاخر</text>
    <rect x="18" y="18" width="1144" height="644" rx="10" fill="none" stroke="#f0bd43" stroke-opacity=".18"/>
    </svg>